<svg width="24" height="24" viewBox="0 0 24 24" fill="none" xmlns="http://www.w3.org/2000/svg">
<path d="M22.5 13.125V14.625H7.665C7.8014 14.3985 7.87397 14.1394 7.875 13.875C7.875 13.4772 7.71696 13.0956 7.43566 12.8143C7.15436 12.533 6.77282 12.375 6.375 12.375H5.25V1.5H7.875V3.375H7.125C7.02554 3.375 6.93016 3.41451 6.85983 3.48484C6.78951 3.55516 6.75 3.65054 6.75 3.75V7.6725C6.75198 7.98859 6.86618 8.2937 7.07223 8.53341C7.27829 8.77312 7.56279 8.93183 7.875 8.98125V10.875C7.875 11.1734 7.99353 11.4595 8.2045 11.6705C8.41548 11.8815 8.70163 12 9 12C9.29837 12 9.58452 11.8815 9.7955 11.6705C10.0065 11.4595 10.125 11.1734 10.125 10.875V10.125H9.375V10.875C9.375 10.9745 9.33549 11.0698 9.26517 11.1402C9.19484 11.2105 9.09946 11.25 9 11.25C8.90054 11.25 8.80516 11.2105 8.73483 11.1402C8.66451 11.0698 8.625 10.9745 8.625 10.875V8.98125C8.93721 8.93183 9.22171 8.77312 9.42777 8.53341C9.63382 8.2937 9.74802 7.98859 9.75 7.6725V3.75C9.75 3.65054 9.71049 3.55516 9.64017 3.48484C9.56984 3.41451 9.47446 3.375 9.375 3.375H8.625V1.5H9.375V0.75H2.25V1.5H4.5V12.375H3V8.25C3 8.15054 2.96049 8.05516 2.89016 7.98483C2.81984 7.91451 2.72446 7.875 2.625 7.875H1.125C1.02554 7.875 0.930161 7.91451 0.859835 7.98483C0.789509 8.05516 0.75 8.15054 0.75 8.25V18.75C0.75 18.8495 0.789509 18.9448 0.859835 19.0152C0.930161 19.0855 1.02554 19.125 1.125 19.125H1.5V22.875C1.5 22.9745 1.53951 23.0698 1.60984 23.1402C1.68016 23.2105 1.77554 23.25 1.875 23.25H3C3.09946 23.25 3.19484 23.2105 3.26516 23.1402C3.33549 23.0698 3.375 22.9745 3.375 22.875V19.125H20.25V22.875C20.25 22.9745 20.2895 23.0698 20.3598 23.1402C20.4302 23.2105 20.5255 23.25 20.625 23.25H21.75C21.8495 23.25 21.9448 23.2105 22.0152 23.1402C22.0855 23.0698 22.125 22.9745 22.125 22.875V19.125H22.875C22.9745 19.125 23.0698 19.0855 23.1402 19.0152C23.2105 18.9448 23.25 18.8495 23.25 18.75V13.125H22.5ZM9 7.6725C8.9999 7.82563 8.93903 7.97246 8.83074 8.08074C8.72246 8.18903 8.57563 8.2499 8.4225 8.25H8.0775C7.92437 8.2499 7.77754 8.18903 7.66926 8.08074C7.56097 7.97246 7.5001 7.82563 7.5 7.6725V6.44625C7.54125 6.44625 7.57875 6.45 7.62375 6.45C7.86411 6.45464 8.10394 6.4256 8.33625 6.36375C8.51129 6.31831 8.69169 6.29686 8.8725 6.3C8.92125 6.3 8.9625 6.3 9 6.30375V7.6725ZM9 4.125V5.55375C8.95875 5.55 8.9175 5.55 8.8725 5.55C8.63338 5.54558 8.39483 5.57461 8.16375 5.63625C7.98748 5.68191 7.80581 5.70335 7.62375 5.7C7.57875 5.7 7.5375 5.7 7.5 5.69625V4.125H9ZM9.375 15.375H19.875V16.875H9.375V15.375ZM3 13.125H6.375C6.57391 13.125 6.76468 13.204 6.90533 13.3447C7.04598 13.4853 7.125 13.6761 7.125 13.875C7.125 14.0739 7.04598 14.2647 6.90533 14.4053C6.76468 14.546 6.57391 14.625 6.375 14.625H3V13.125ZM3 15.375H8.625V16.875H3V15.375ZM1.5 8.625H2.25V16.875H1.5V8.625ZM2.625 22.5H2.25V19.125H2.625V22.5ZM21.375 22.5H21V19.125H21.375V22.5ZM22.5 18.375H1.5V17.625H22.5V18.375ZM22.5 16.875H20.625V15.375H22.5V16.875Z" fill="#12289B"/>
</svg>
