<svg width="24" height="24" viewBox="0 0 24 24" fill="none" xmlns="http://www.w3.org/2000/svg">
<g clip-path="url(#clip0)">
<path d="M18.3288 11.7869H20.0029C20.3814 11.7869 20.6893 11.479 20.6893 11.1005V9.42642C20.6893 9.04795 20.3814 8.74003 20.0029 8.74003H18.3288C17.9503 8.74003 17.6424 9.04795 17.6424 9.42642V11.1005C17.6424 11.479 17.9503 11.7869 18.3288 11.7869ZM18.3456 9.44316H19.9862V11.0838H18.3456V9.44316ZM18.3288 16.24H20.0029C20.3814 16.24 20.6893 15.9321 20.6893 15.5536V13.8795C20.6893 13.5011 20.3814 13.1932 20.0029 13.1932H18.3288C17.9503 13.1932 17.6424 13.5011 17.6424 13.8795V15.5536C17.6424 15.9321 17.9503 16.24 18.3288 16.24ZM18.3456 13.8963H19.9862V15.5369H18.3456V13.8963ZM13.5515 11.7869H15.2256C15.6041 11.7869 15.912 11.479 15.912 11.1005V9.42642C15.912 9.04795 15.6041 8.74003 15.2256 8.74003H13.5515C13.173 8.74003 12.8651 9.04795 12.8651 9.42642V11.1005C12.8651 11.479 13.173 11.7869 13.5515 11.7869ZM13.5682 9.44316H15.2089V11.0838H13.5682V9.44316ZM5.67098 17.4375H3.99689C3.61842 17.4375 3.3105 17.7454 3.3105 18.1239V19.798C3.3105 20.1765 3.61842 20.4844 3.99689 20.4844H5.67098C6.04945 20.4844 6.35737 20.1765 6.35737 19.798V18.1239C6.35737 17.7454 6.04945 17.4375 5.67098 17.4375ZM5.65425 19.7812H4.01362V18.1406H5.65425V19.7812ZM5.67098 8.74003H3.99689C3.61842 8.74003 3.3105 9.04795 3.3105 9.42642V11.1005C3.3105 11.479 3.61842 11.7869 3.99689 11.7869H5.67098C6.04945 11.7869 6.35737 11.479 6.35737 11.1005V9.42642C6.35737 9.04791 6.04945 8.74003 5.67098 8.74003ZM5.65425 11.0838H4.01362V9.44316H5.65425V11.0838ZM13.5515 16.1356H15.2256C15.6041 16.1356 15.912 15.8277 15.912 15.4493V13.7752C15.912 13.3967 15.6041 13.0888 15.2256 13.0888H13.5515C13.173 13.0888 12.8651 13.3967 12.8651 13.7752V15.4493C12.8651 15.8277 13.173 16.1356 13.5515 16.1356ZM13.5682 13.7919H15.2089V15.4325H13.5682V13.7919ZM21.0385 1.60659H19.5354V1.06908C19.5354 0.479578 19.0558 0 18.4663 0H18.3049C17.7154 0 17.2358 0.479578 17.2358 1.06908V1.60659H6.76397V1.06908C6.76397 0.479578 6.28439 0 5.69489 0H5.53345C4.94395 0 4.46437 0.479578 4.46437 1.06908V1.60659H2.96133C1.99078 1.60659 1.20117 2.3962 1.20117 3.36675V22.2422C1.20117 23.2115 1.9897 24 2.95898 24H21.0409C22.0102 24 22.7987 23.2115 22.7987 22.2422V3.36675C22.7987 2.3962 22.0091 1.60659 21.0385 1.60659ZM17.939 1.06908C17.939 0.867281 18.1031 0.703125 18.3049 0.703125H18.4663C18.6681 0.703125 18.8323 0.867281 18.8323 1.06908V1.60659H17.939V1.06908ZM5.16754 1.06908C5.16754 0.867281 5.3317 0.703125 5.5335 0.703125H5.69493C5.89673 0.703125 6.06089 0.867281 6.06089 1.06908V1.60659H5.16759V1.06908H5.16754ZM22.0955 22.2422C22.0955 22.8238 21.6224 23.2969 21.0409 23.2969H2.95894C2.37736 23.2969 1.90425 22.8238 1.90425 22.2422V22.24C2.19881 22.4619 2.56495 22.5938 2.96133 22.5938H17.2152C17.6854 22.5938 18.1274 22.4107 18.4598 22.0782L22.0955 18.4425V22.2422ZM18.1011 21.4425C18.1287 21.3288 18.1437 21.2101 18.1437 21.088V18.7413C18.1437 18.2988 18.5037 17.9387 18.9463 17.9387H21.293C21.4151 17.9387 21.5337 17.9237 21.6475 17.8962L18.1011 21.4425ZM22.0955 6.63066H7.11553C6.92137 6.63066 6.76397 6.78806 6.76397 6.98222C6.76397 7.17637 6.92137 7.33378 7.11553 7.33378H22.0955V16.4331C22.0955 16.8756 21.7355 17.2357 21.293 17.2357H18.9463C18.116 17.2357 17.4405 17.9111 17.4405 18.7413V21.0881C17.4405 21.5306 17.0805 21.8907 16.638 21.8907H2.96133C2.37848 21.8907 1.9043 21.4165 1.9043 20.8336V7.33378H5.70928C5.90343 7.33378 6.06084 7.17637 6.06084 6.98222C6.06084 6.78806 5.90343 6.63066 5.70928 6.63066H1.90425V3.36675C1.90425 2.78391 2.37844 2.30972 2.96128 2.30972H4.46437V3.34341C4.46437 3.93291 4.94395 4.41248 5.53345 4.41248C5.72761 4.41248 5.88501 4.25508 5.88501 4.06092C5.88501 3.86677 5.72761 3.70936 5.53345 3.70936C5.33165 3.70936 5.1675 3.5452 5.1675 3.34341V2.30972H17.2358V3.34341C17.2358 3.93291 17.7154 4.41248 18.3049 4.41248C18.4991 4.41248 18.6565 4.25508 18.6565 4.06092C18.6565 3.86677 18.4991 3.70936 18.3049 3.70936C18.1031 3.70936 17.939 3.5452 17.939 3.34341V2.30972H21.0385C21.6214 2.30972 22.0955 2.78391 22.0955 3.36675V6.63066ZM5.67098 13.0888H3.99689C3.61842 13.0888 3.3105 13.3967 3.3105 13.7752V15.4493C3.3105 15.8277 3.61842 16.1356 3.99689 16.1356H5.67098C6.04945 16.1356 6.35737 15.8277 6.35737 15.4493V13.7752C6.35737 13.3966 6.04945 13.0888 5.67098 13.0888ZM5.65425 15.4325H4.01362V13.7919H5.65425V15.4325ZM8.7742 11.7869H10.4483C10.8268 11.7869 11.1347 11.479 11.1347 11.1005V9.42642C11.1347 9.04795 10.8268 8.74003 10.4483 8.74003H8.7742C8.39573 8.74003 8.08781 9.04795 8.08781 9.42642V11.1005C8.08781 11.479 8.39573 11.7869 8.7742 11.7869ZM8.79093 9.44316H10.4316V11.0838H8.79093V9.44316ZM13.5678 19.7812C13.5591 19.5948 13.4052 19.4464 13.2166 19.4464C13.0225 19.4464 12.8651 19.6038 12.8651 19.798C12.8651 20.1765 13.173 20.4844 13.5515 20.4844H15.2256C15.604 20.4844 15.9119 20.1765 15.9119 19.798V18.1239C15.9119 17.7454 15.604 17.4375 15.2256 17.4375H13.5515C13.173 17.4375 12.8651 17.7454 12.8651 18.1239V18.6067C12.8651 18.8009 13.0225 18.9583 13.2166 18.9583C13.4108 18.9583 13.5682 18.8009 13.5682 18.6067V18.1406H15.2088V19.7812H13.5678ZM8.7742 16.1356H10.4483C10.8268 16.1356 11.1347 15.8277 11.1347 15.4493V13.7752C11.1347 13.3967 10.8268 13.0888 10.4483 13.0888H8.7742C8.39573 13.0888 8.08781 13.3967 8.08781 13.7752V15.4493C8.08781 15.8277 8.39573 16.1356 8.7742 16.1356ZM8.79093 13.7919H10.4316V15.4325H8.79093V13.7919ZM8.7742 20.4844H10.4483C10.8268 20.4844 11.1347 20.1765 11.1347 19.798V18.1239C11.1347 17.7454 10.8268 17.4375 10.4483 17.4375H8.7742C8.39573 17.4375 8.08781 17.7454 8.08781 18.1239V19.798C8.08781 20.1765 8.39573 20.4844 8.7742 20.4844ZM8.79093 18.1406H10.4316V19.7812H8.79093V18.1406Z" fill="#12289B"/>
</g>
<defs>
<clipPath id="clip0">
<rect width="24" height="24" fill="white"/>
</clipPath>
</defs>
</svg>
