<svg width="24" height="24" viewBox="0 0 24 24" fill="none" xmlns="http://www.w3.org/2000/svg">
<path d="M20.8535 5.1465L15.8535 0.146484C15.7598 0.0527344 15.6328 0 15.5 0H4.99997C3.89747 0 3 0.896953 3 2.00002V22C3 23.103 3.89747 24 5.00002 24H19C20.1025 24 21 23.103 21 22V5.49998C21 5.36719 20.9473 5.24025 20.8535 5.1465ZM16 1.70705L19.293 5.00002H17C16.4482 5.00002 16 4.55128 16 4.00003V1.70705ZM20 22C20 22.5512 19.5518 23 19 23H5.00002C4.44825 23 4.00003 22.5512 4.00003 22V2.00002C4.00003 1.44877 4.4483 1.00003 5.00002 1.00003H15V4.00003C15 5.10305 15.8975 6 17 6H20V22Z" fill="#12289B"/>
<path d="M17.5 14H6.50002C6.22364 14 6 14.2237 6 14.5C6 14.7764 6.22364 15 6.50002 15H17.5C17.7764 15 18 14.7764 18 14.5C18 14.2237 17.7764 14 17.5 14Z" fill="#12289B"/>
<path d="M17.5 11H6.50002C6.22364 11 6 11.2237 6 11.5C6 11.7764 6.22364 12 6.50002 12H17.5C17.7764 12 18 11.7764 18 11.5C18 11.2237 17.7764 11 17.5 11Z" fill="#12289B"/>
<path d="M17.5 17H6.50002C6.22364 17 6 17.2237 6 17.5C6 17.7764 6.22364 18 6.50002 18H17.5C17.7764 18 18 17.7764 18 17.5C18 17.2237 17.7764 17 17.5 17Z" fill="#12289B"/>
<path d="M12.5 20H6.50002C6.22364 20 6 20.2237 6 20.5C6 20.7764 6.22364 21 6.50002 21H12.5C12.7764 21 13 20.7764 13 20.5C13 20.2237 12.7764 20 12.5 20Z" fill="#12289B"/>
<path d="M11 8.49997C11 8.77634 11.2236 8.99999 11.5 8.99999H17.5C17.7764 8.99999 18 8.77634 18 8.49997C18 8.22359 17.7764 7.99995 17.5 7.99995H11.5C11.2236 8 11 8.22364 11 8.49997Z" fill="#12289B"/>
<path d="M7.5 8.00001H6.50002C6.22364 8.00001 6 8.22365 6 8.50003C6 8.7764 6.22364 9.00004 6.50002 9.00004H7.00003C7.00003 9.27642 7.22367 9.50006 7.50005 9.50006C7.77642 9.50006 8.00006 9.27642 8.00006 9.00004V8.90793C8.58075 8.70079 9 8.15099 9 7.49999C9 6.67284 8.32716 5.99999 7.5 5.99999C7.22461 5.99999 6.99998 5.77588 6.99998 5.49998C6.99998 5.22412 7.22461 4.99996 7.5 4.99996H8.49998C8.77636 4.99996 9 4.77632 9 4.49995C9 4.22357 8.77636 3.99993 8.49998 3.99993H7.99997C7.99997 3.72356 7.77633 3.49992 7.49995 3.49992C7.22358 3.49992 6.99994 3.72356 6.99994 3.99993V4.09204C6.41925 4.29918 6 4.84898 6 5.49998C6 6.32714 6.67284 6.99998 7.5 6.99998C7.77539 6.99998 8.00002 7.22409 8.00002 7.49999C8.00002 7.7759 7.77539 8.00001 7.5 8.00001Z" fill="#12289B"/>
</svg>
