<svg width="24" height="24" viewBox="0 0 24 24" fill="none" xmlns="http://www.w3.org/2000/svg">
<path d="M20.4101 20.7933L15.335 8.42285C15.0535 7.73657 14.9107 7.01257 14.9107 6.27081V3.00092C14.9107 2.6488 15.0478 2.31775 15.2969 2.06873C15.6005 1.76514 15.7678 1.36139 15.7678 0.932007V0.46875C15.7678 0.209839 15.5578 0 15.2991 0H8.75433C8.49542 0 8.28558 0.209839 8.28558 0.46875V0.932007C8.28558 1.36139 8.45276 1.76514 8.75634 2.06873C9.00537 2.31775 9.14251 2.6488 9.14251 3.0011V6.27081C9.14251 7.01257 8.99988 7.73657 8.71826 8.42285L7.32373 11.822C7.32318 11.8233 7.32263 11.8246 7.32208 11.8259L3.64312 20.7933C3.34851 21.5116 3.43072 22.3255 3.86322 22.9702C4.29571 23.6151 5.01733 24 5.7937 24H18.2595C19.0359 24 19.7577 23.6151 20.1902 22.9702C20.6225 22.3253 20.7047 21.5116 20.4101 20.7933ZM9.58563 8.77863C9.91375 7.979 10.08 7.13525 10.08 6.27081V3.00092C10.08 2.3985 9.84546 1.83197 9.41937 1.40588C9.29413 1.28064 9.22455 1.11438 9.22308 0.9375H14.8303C14.8289 1.11438 14.7593 1.28046 14.6338 1.40588C14.2079 1.83197 13.9732 2.39832 13.9732 3.00092V6.27063C13.9732 7.13507 14.1396 7.97882 14.4676 8.77844L15.5994 11.5371H8.45385L9.58563 8.77863ZM19.4114 22.448C19.1496 22.8386 18.7297 23.0625 18.2595 23.0625H5.7937C5.32367 23.0625 4.90381 22.8386 4.64178 22.448C4.44421 22.1534 4.36877 21.8117 4.42004 21.4748H5.19238C5.45111 21.4748 5.66113 21.2648 5.66113 21.006C5.66113 20.7471 5.45111 20.5373 5.19238 20.5373H4.76172L5.30005 19.2248H6.09069C6.34961 19.2248 6.55945 19.0148 6.55945 18.756C6.55945 18.4971 6.34961 18.2873 6.09069 18.2873H5.68475L6.22308 16.9748H7.03607C7.29498 16.9748 7.50482 16.7648 7.50482 16.506C7.50482 16.2471 7.29498 16.0373 7.03607 16.0373H6.60778L7.1463 14.7248H7.98126C8.24017 14.7248 8.45001 14.5148 8.45001 14.256C8.45001 13.9971 8.24017 13.7873 7.98126 13.7873H7.53082L8.06933 12.4748H15.9839L19.5427 21.1492C19.7211 21.5841 19.6733 22.0576 19.4114 22.448Z" fill="#12289B"/>
<path d="M18.0961 20.8226C17.9979 20.5829 17.7244 20.4683 17.4847 20.5662C17.2452 20.6644 17.1304 20.9379 17.2283 21.1776L17.2309 21.1835C17.3053 21.3649 17.4801 21.4748 17.6649 21.4748C17.724 21.4748 17.7841 21.4636 17.8423 21.4398C18.0818 21.3417 18.1966 21.0679 18.0985 20.8284L18.0961 20.8226Z" fill="#12289B"/>
<path d="M17.4328 19.2076L15.7541 15.1159C15.6559 14.8764 15.3822 14.7618 15.1425 14.8601C14.903 14.9583 14.7886 15.2322 14.8867 15.4717L16.5654 19.5634C16.6398 19.7448 16.8146 19.8543 16.9994 19.8543C17.0585 19.8543 17.1188 19.8431 17.177 19.8192C17.4165 19.721 17.5311 19.4471 17.4328 19.2076Z" fill="#12289B"/>
</svg>
