<svg width="24" height="24" viewBox="0 0 24 24" fill="none" xmlns="http://www.w3.org/2000/svg">
<path d="M16.2032 11.2874C16.2016 11.2874 16.2 11.2874 16.1983 11.2874H14.1884V9.27259C14.1911 8.86624 13.8639 8.53457 13.4576 8.53185C13.4559 8.53185 13.4542 8.53185 13.4526 8.53185H10.5489C10.1426 8.53185 9.81312 8.8613 9.81312 9.26766V11.2825H7.80324C7.39688 11.2798 7.06522 11.6069 7.0625 12.0133C7.0625 12.0166 7.0625 12.0199 7.0625 12.0232V14.922C7.0625 15.3283 7.39194 15.6578 7.7983 15.6578H9.81312V17.6677C9.8104 18.074 10.1376 18.4057 10.544 18.4084C10.5457 18.4084 10.5473 18.4084 10.5489 18.4084H13.4477C13.854 18.4084 14.1835 18.079 14.1835 17.6726V15.6578H16.1983C16.6047 15.6605 16.9363 15.3333 16.939 14.9269C16.939 14.9252 16.939 14.9236 16.939 14.922V12.0232C16.939 11.6169 16.6097 11.2874 16.2032 11.2874ZM15.9514 14.6701H13.6946C13.4219 14.6701 13.2008 14.8912 13.2008 15.164V17.4207H10.8008V15.164C10.8008 14.8912 10.5797 14.6701 10.3069 14.6701H8.05015V12.2751H10.3069C10.5797 12.2751 10.8008 12.054 10.8008 11.7812V9.51951H13.1958V11.7763C13.1958 12.049 13.4169 12.2701 13.6897 12.2701H15.9514V14.6701Z" fill="#12289B"/>
<path d="M20.5926 4.83802H16.5235V3.09975C16.5491 2.30654 15.9268 1.64271 15.1336 1.61709C15.0931 1.6158 15.0527 1.61617 15.0123 1.61827H8.98765C8.19506 1.57697 7.51907 2.18598 7.47772 2.97851C7.47562 3.01888 7.47519 3.05931 7.47654 3.09975V4.82814H3.40741C1.83704 4.82814 0 5.72197 0 8.23555V18.9763C0 21.4899 1.83704 22.3837 3.40741 22.3837H20.5926C22.163 22.3837 24 21.4899 24 18.9763V8.24543C24 5.73185 22.1679 4.83802 20.5926 4.83802ZM8.4642 3.09975C8.4642 2.95654 8.4642 2.57135 8.99259 2.57135H15.0123C15.5407 2.57135 15.5407 2.9516 15.5407 3.09975V4.82814H8.4642V3.09975ZM23.0123 18.9763C23.0123 21.159 21.3235 21.396 20.5926 21.396H3.40741C2.68148 21.396 0.987654 21.159 0.987654 18.9763V8.24543C0.987654 6.06271 2.67654 5.82567 3.40741 5.82567H20.5926C21.3185 5.82567 23.0123 6.06271 23.0123 8.24543V18.9763Z" fill="#12289B"/>
</svg>
