<svg width="24" height="24" viewBox="0 0 24 24" fill="none" xmlns="http://www.w3.org/2000/svg">
<path d="M11.4371 2.98124H11.6809V3.22499C11.6809 3.41249 11.8309 3.56249 12.0184 3.56249C12.2059 3.56249 12.3559 3.41249 12.3559 3.22499V2.98124H12.5621C12.7496 2.98124 12.8996 2.83124 12.8996 2.64374C12.8996 2.45624 12.7496 2.32499 12.5621 2.32499H12.3184V2.08124C12.3184 1.89374 12.1684 1.74374 11.9809 1.74374C11.7934 1.74374 11.6434 1.89374 11.6434 2.08124V2.32499H11.4371C11.2496 2.32499 11.0996 2.47499 11.0996 2.66249C11.0996 2.84999 11.2496 2.98124 11.4371 2.98124Z" fill="#12289B"/>
<path d="M7.10721 17.3625C6.75096 17.6062 6.45096 17.925 6.18846 18.2625C6.07596 18.4125 6.11346 18.6187 6.26346 18.7125C6.41346 18.825 6.61971 18.7875 6.71346 18.6562C6.93846 18.3562 7.20096 18.1125 7.48221 17.8875C7.63221 17.775 7.66971 17.5875 7.55721 17.4375C7.44471 17.2875 7.25721 17.25 7.10721 17.3625Z" fill="#12289B"/>
<path d="M14.7939 15.45C14.6626 15.4312 14.5126 15.4312 14.3814 15.4312C14.3064 15.4312 14.1376 15.375 14.1189 15.2062C14.9064 15.15 16.2564 14.8687 18.0189 13.8937C18.1126 13.8375 18.1876 13.725 18.1876 13.6125V8.19374C18.1876 6.07499 17.4751 4.40624 16.1064 3.31874L16.6314 1.31249C16.6689 1.12499 16.5751 0.899994 16.3126 0.899994H7.68762C7.50012 0.899994 7.31262 1.06874 7.36887 1.31249C7.50012 1.81874 7.91262 3.31874 7.91262 3.31874C6.54387 4.38749 5.83137 6.07499 5.83137 8.19374V13.5937C5.83137 13.7062 5.88762 13.8187 6.00012 13.875C7.74387 14.8687 9.09387 15.1312 9.90012 15.1875C9.88137 15.3187 9.76887 15.4125 9.63762 15.4125C9.48762 15.4125 9.20637 15.4312 9.18762 15.4312C6.31887 15.6562 4.20012 18.0187 4.21887 20.8312V22.7812C4.21887 22.9687 4.36887 23.1 4.55637 23.1187H19.4814C19.6689 23.1187 19.8001 22.9687 19.8189 22.7812V20.85C19.8001 18.9375 18.4876 15.75 14.7939 15.45ZM12.0001 17.85L9.97512 16.0125C10.3314 15.8812 10.5564 15.5437 10.5564 15.15V14.55C11.4939 14.8687 12.5251 14.8687 13.4626 14.55V15.15C13.4626 15.525 13.6876 15.8625 14.0439 16.0125L12.0001 17.85ZM8.02512 8.43749C10.4251 8.21249 12.2251 7.55624 13.5189 6.43124L13.5376 6.44999C14.2689 7.40624 14.7564 8.06249 16.0126 8.34374V10.1437C16.0126 12.3375 14.2314 14.1375 12.0189 14.1375C9.80637 14.1375 8.02512 12.3562 8.02512 10.1437V8.43749ZM14.1189 14.5312V14.2687C15.6751 13.4812 16.6501 11.8875 16.6501 10.1437V8.45624C16.9126 8.49374 17.1939 8.51249 17.5314 8.51249V13.4062C15.9939 14.2312 14.8126 14.475 14.1189 14.5312ZM15.8814 1.55624L15.0939 4.49999C14.1001 4.12499 13.0689 3.91874 12.0001 3.91874C10.9501 3.91874 9.90012 4.12499 8.90637 4.49999L8.11887 1.55624H15.8814ZM8.10012 4.01249L8.38137 5.02499C8.43762 5.19374 8.64387 5.32499 8.83137 5.23124C9.82512 4.79999 10.9126 4.55624 12.0001 4.55624C13.0876 4.57499 14.1751 4.79999 15.1689 5.23124C15.3939 5.32499 15.5814 5.15624 15.6189 5.02499L15.9001 4.01249C16.8939 4.91249 17.4376 6.22499 17.5126 7.85624C16.0126 7.85624 15.0939 7.66874 13.8001 5.75624C13.7251 5.64374 13.5001 5.54999 13.3126 5.71874C11.9064 7.12499 9.65637 7.81874 6.48762 7.85624C6.56262 6.22499 7.10637 4.91249 8.10012 4.01249ZM6.48762 8.51249C6.78762 8.51249 7.08762 8.49374 7.36887 8.49374V10.1625C7.36887 11.9062 8.34387 13.5 9.90012 14.2875V14.55C9.18762 14.4937 8.02512 14.25 6.48762 13.4062V8.51249ZM4.85637 20.85C4.85637 18.4312 6.67512 16.3875 9.09387 16.125L11.5126 18.3187L10.7251 19.05C10.6501 19.1062 10.6126 19.2 10.6126 19.2937V22.4812H4.85637V20.85ZM19.1439 22.4625H11.2689V19.425L14.9064 16.125H14.9251H14.9439C15.2439 16.1625 15.5251 16.2187 15.8064 16.3125H15.8251C17.8126 16.9312 19.1626 18.7687 19.1626 20.85L19.1439 22.4625Z" fill="#12289B"/>
<path d="M16.2379 19.3125H14.5504C14.3629 19.3125 14.2129 19.4625 14.2129 19.65C14.2129 19.8375 14.3629 19.9875 14.5504 19.9875H16.2379C16.4254 19.9875 16.5754 19.8375 16.5754 19.65C16.5754 19.4625 16.4066 19.3125 16.2379 19.3125Z" fill="#12289B"/>
</svg>
