<svg width="24" height="24" viewBox="0 0 24 24" fill="none" xmlns="http://www.w3.org/2000/svg">
<path d="M20.7566 11.0859C21.4594 10.592 21.9248 9.77048 21.9248 8.84448C21.9248 7.32964 20.6996 6.10448 19.1848 6.10448C17.67 6.10448 16.4448 7.32964 16.4448 8.84448C16.4448 9.77048 16.9054 10.592 17.613 11.0859C17.0099 11.2948 16.459 11.6177 15.9937 12.0356C15.3526 11.4895 14.5975 11.0716 13.7713 10.8247C14.7732 10.2169 15.4476 9.11041 15.4476 7.852C15.4476 5.93352 13.8947 4.38069 11.9763 4.38069C10.0578 4.38069 8.50495 5.93827 8.50495 7.852C8.50495 9.11041 9.17451 10.2169 10.1812 10.8247C9.36446 11.0716 8.61892 11.4848 7.98259 12.0214C7.51721 11.613 6.97586 11.2948 6.38227 11.0906C7.08508 10.5968 7.55046 9.77523 7.55046 8.84923C7.55046 7.33439 6.32529 6.10922 4.81045 6.10922C3.29561 6.10922 2.07044 7.33439 2.07044 8.84923C2.07044 9.77523 2.53106 10.5968 3.23862 11.0906C1.35338 11.7412 0 13.5315 0 15.6351V15.9486C0 15.9581 0.00949743 15.9676 0.0189949 15.9676H5.82667C5.79343 16.2287 5.77444 16.4994 5.77444 16.7701V17.093C5.77444 18.4891 6.90463 19.6193 8.30075 19.6193H15.6613C17.0574 19.6193 18.1876 18.4891 18.1876 17.093V16.7701C18.1876 16.4994 18.1686 16.2287 18.1353 15.9676H23.981C23.9905 15.9676 24 15.9581 24 15.9486V15.6351C23.9905 13.5267 22.6419 11.7364 20.7566 11.0859ZM17.2046 8.83973C17.2046 7.74753 18.0926 6.85952 19.1848 6.85952C20.277 6.85952 21.165 7.74753 21.165 8.83973C21.165 9.91769 20.296 10.7962 19.2228 10.8199C19.2085 10.8199 19.1991 10.8199 19.1848 10.8199C19.1706 10.8199 19.1611 10.8199 19.1468 10.8199C18.0689 10.801 17.2046 9.92244 17.2046 8.83973ZM9.25524 7.852C9.25524 6.35616 10.4709 5.14049 11.9668 5.14049C13.4626 5.14049 14.6783 6.35616 14.6783 7.852C14.6783 9.29561 13.5433 10.478 12.1235 10.5588C12.0712 10.5588 12.019 10.5588 11.9668 10.5588C11.9145 10.5588 11.8623 10.5588 11.8101 10.5588C10.3902 10.478 9.25524 9.29561 9.25524 7.852ZM2.81599 8.83973C2.81599 7.74753 3.704 6.85952 4.7962 6.85952C5.88841 6.85952 6.77641 7.74753 6.77641 8.83973C6.77641 9.91769 5.9074 10.7962 4.83419 10.8199C4.81994 10.8199 4.81045 10.8199 4.7962 10.8199C4.78195 10.8199 4.77246 10.8199 4.75821 10.8199C3.685 10.801 2.81599 9.92244 2.81599 8.83973ZM5.95964 15.203H0.769292C0.982984 13.1801 2.69252 11.594 4.76771 11.5797C4.77721 11.5797 4.7867 11.5797 4.7962 11.5797C4.8057 11.5797 4.8152 11.5797 4.82469 11.5797C5.81243 11.5845 6.71468 11.9501 7.41274 12.5437C6.72893 13.2845 6.22082 14.1963 5.95964 15.203ZM17.4183 17.093C17.4183 18.0665 16.6252 18.8595 15.6518 18.8595H8.29125C7.31777 18.8595 6.52473 18.0665 6.52473 17.093V16.7701C6.52473 13.8211 8.88009 11.4088 11.8101 11.3233C11.8623 11.3281 11.9193 11.3281 11.9715 11.3281C12.0237 11.3281 12.0807 11.3281 12.133 11.3233C15.0629 11.4088 17.4183 13.8211 17.4183 16.7701V17.093ZM17.9834 15.203C17.7222 14.201 17.2236 13.3035 16.5445 12.5627C17.2473 11.9549 18.1591 11.5892 19.1563 11.5797C19.1658 11.5797 19.1753 11.5797 19.1848 11.5797C19.1943 11.5797 19.2038 11.5797 19.2133 11.5797C21.2885 11.594 22.998 13.1801 23.2117 15.203H17.9834Z" fill="#12289B"/>
</svg>
