<svg width="24" height="24" viewBox="0 0 24 24" fill="none" xmlns="http://www.w3.org/2000/svg">
<path d="M9.36433 7.99168H7.06672C6.81698 7.99168 6.61719 8.19147 6.61719 8.44121V10.1644C6.61719 10.4142 6.81698 10.6139 7.06672 10.6139H9.36433C9.61407 10.6139 9.81386 10.4142 9.81386 10.1644V8.44121C9.81386 8.19147 9.61407 7.99168 9.36433 7.99168ZM8.91479 9.71488H7.49128V8.89074H8.91479V9.71488Z" fill="#12289B"/>
<path d="M13.1612 7.99168H10.8636C10.6139 7.99168 10.4141 8.19147 10.4141 8.44121V10.1644C10.4141 10.4142 10.6139 10.6139 10.8636 10.6139H13.1612C13.411 10.6139 13.6107 10.4142 13.6107 10.1644V8.44121C13.6107 8.19147 13.411 7.99168 13.1612 7.99168ZM12.7117 9.71488H11.2882V8.89074H12.7117V9.71488Z" fill="#12289B"/>
<path d="M16.9581 7.99168H14.6605C14.4107 7.99168 14.2109 8.19147 14.2109 8.44121V10.1644C14.2109 10.4142 14.4107 10.6139 14.6605 10.6139H16.9581C17.2078 10.6139 17.4076 10.4142 17.4076 10.1644V8.44121C17.4076 8.19147 17.2078 7.99168 16.9581 7.99168ZM16.5086 9.71488H15.085V8.89074H15.11H16.5086V9.71488Z" fill="#12289B"/>
<path d="M9.34089 11.8876H7.04328C6.79354 11.8876 6.59375 12.0874 6.59375 12.3371V14.0604C6.59375 14.3101 6.79354 14.5099 7.04328 14.5099H9.34089C9.59063 14.4849 9.79042 14.2851 9.79042 14.0604V12.3371C9.79042 12.0874 9.59063 11.8876 9.34089 11.8876ZM8.91633 13.6108H7.49281V12.7867H8.91633V13.6108Z" fill="#12289B"/>
<path d="M13.1612 11.8626H10.8636C10.6139 11.8626 10.4141 12.0624 10.4141 12.3122V14.0354C10.4141 14.2851 10.6139 14.4849 10.8636 14.4849H13.1612C13.411 14.4849 13.6107 14.2851 13.6107 14.0354V12.3122C13.6107 12.0624 13.411 11.8626 13.1612 11.8626ZM12.7117 13.6108H11.2882V12.7867H12.7117V13.6108Z" fill="#12289B"/>
<path d="M16.9581 11.8626H14.6605C14.4107 11.8626 14.2109 12.0624 14.2109 12.3122V14.0354C14.2109 14.2851 14.4107 14.4849 14.6605 14.4849H16.9581C17.2078 14.4849 17.4076 14.2851 17.4076 14.0354V12.3122C17.4076 12.0624 17.2078 11.8626 16.9581 11.8626ZM16.5086 13.6108H15.085V12.7867H15.11H16.5086V13.6108Z" fill="#12289B"/>
<path d="M12.4365 1.99792V1.17377H11.5624V1.99792H10.7383V2.872H11.5624V3.69615H12.4365V2.872H13.2607V1.99792H12.4365Z" fill="#12289B"/>
<path d="M20.3279 23.1009H19.4038V6.29344C19.4038 6.0437 19.204 5.84391 18.9543 5.84391H14.6588V4.84495H15.9574C16.2072 4.84495 16.407 4.64516 16.407 4.39542V0.449532C16.407 0.199792 16.2072 0 15.9574 0H8.2155C7.96576 0 7.76597 0.199792 7.76597 0.449532V4.4204C7.76597 4.67014 7.96576 4.86993 8.2155 4.86993H9.3643V5.86889H5.01883C4.76909 5.86889 4.5693 6.06868 4.5693 6.31842V23.1509H3.67023C3.42049 23.1509 3.2207 23.3507 3.2207 23.6004C3.24568 23.8252 3.44547 24 3.69521 24H5.01883H8.61508H15.383H18.9793H20.3279C20.5776 24 20.7774 23.8002 20.7774 23.5505C20.7774 23.3007 20.5776 23.1009 20.3279 23.1009ZM8.64006 3.97086V0.899063H15.5329V3.97086H8.64006ZM13.7847 4.86993V5.86889H10.2384V4.86993H13.7847ZM11.562 23.1259H9.06461V18.9802H11.562V23.1259ZM14.9585 23.1259H12.4611V18.9802H14.9585V23.1259ZM8.64006 18.0812H8.19052V17.7066H15.8575V18.0812H15.383H8.64006ZM18.5297 23.1259H15.8326V18.9802H16.2821C16.5318 18.9802 16.7316 18.7804 16.7316 18.5307V17.257C16.7316 17.0073 16.5318 16.8075 16.2821 16.8075H7.74099C7.49125 16.8075 7.29146 17.0073 7.29146 17.257V18.5307C7.29146 18.7804 7.49125 18.9802 7.74099 18.9802H8.19052V23.1259H5.46836V6.74298H18.5297V23.1259Z" fill="#12289B"/>
</svg>
