<svg width="24" height="24" viewBox="0 0 24 24" fill="none" xmlns="http://www.w3.org/2000/svg">
<path d="M11.9847 11.8589C13.5338 11.8589 14.7898 10.6031 14.7898 9.05395C14.7898 7.50477 13.5338 6.24881 11.9847 6.24881C10.4355 6.24881 9.17969 7.50477 9.17969 9.05395C9.18138 10.6024 10.4361 11.8572 11.9847 11.8589ZM11.9847 7.13309C13.0455 7.13309 13.9055 7.99312 13.9055 9.05395C13.9055 10.1148 13.0455 10.9747 11.9847 10.9747C10.9238 10.9747 10.064 10.1148 10.064 9.05395C10.065 7.99358 10.9241 7.13417 11.9847 7.13309Z" fill="#12289B"/>
<path d="M19.3215 10.5767H18.1277C16.5635 10.5767 15.1491 11.5207 14.5151 12.9293C13.9257 12.5934 13.259 12.4168 12.5807 12.4174H11.3869C10.7119 12.4168 10.0482 12.5917 9.46116 12.9243C8.82773 11.5032 7.42056 10.5847 5.86463 10.5769H4.671C2.50421 10.5792 0.74855 12.3348 0.746094 14.5015V18.2669C0.746094 18.5113 0.944135 18.709 1.18823 18.709H7.46232V20.1076C7.46232 20.352 7.66005 20.5497 7.90446 20.5497H16.063C16.3071 20.5497 16.5051 20.352 16.5051 20.1076V18.709H22.804C23.048 18.709 23.2461 18.511 23.2461 18.2669V14.5015C23.2436 12.3348 21.4881 10.5792 19.3215 10.5767ZM19.3215 11.461C19.3436 11.461 19.3652 11.4624 19.3872 11.4627L18.8537 13.7514C18.833 13.8538 18.7495 13.9319 18.6457 13.9456C18.6397 13.9459 18.632 13.9459 18.6279 13.946C18.5164 13.9399 18.4237 13.8591 18.4022 13.7498L17.8716 11.472C17.9564 11.4648 18.0417 11.4611 18.1279 11.461H19.3215ZM12.5807 13.3017C12.6616 13.3017 12.7416 13.3058 12.8208 13.312L12.0943 15.6793L11.3648 13.3023C11.3722 13.3023 11.3792 13.3017 11.3866 13.3017H12.5807ZM5.86447 11.461C5.89456 11.461 5.92435 11.4621 5.95428 11.4628L5.21662 14.1439L4.48033 11.4674C4.54328 11.4636 4.60683 11.461 4.6707 11.461H5.86447ZM1.63037 14.5015C1.63191 13.2305 2.42254 12.0943 3.61355 11.6509L4.77448 15.8704V17.8247H1.63037V14.5015ZM5.65876 17.8247V15.8704L6.82797 11.6202C7.70457 11.9177 8.4014 12.5935 8.72549 13.4607C7.91996 14.2023 7.4617 15.2471 7.46201 16.342V17.8247H5.65876ZM8.3466 16.3422C8.34813 15.0121 9.21261 13.8369 10.4821 13.4393L11.6522 17.2526V19.6654H8.3466V16.3422ZM15.6209 19.6654H12.5365V17.2526L13.685 13.5103C14.8513 13.9663 15.6193 15.0898 15.6209 16.342V19.6654ZM15.2483 13.4669C15.5585 12.6491 16.1981 11.9991 17.011 11.6755L17.5413 13.9505C17.6202 14.2997 17.859 14.5913 18.186 14.7373V17.825H16.5051V16.342C16.5056 15.2502 16.0498 14.2081 15.2483 13.4669ZM22.3618 17.8246H19.0703V14.7359C19.3955 14.5891 19.6337 14.2994 19.7148 13.952L20.2607 11.6101C21.5125 12.0183 22.3601 13.1849 22.3618 14.5015V17.8246Z" fill="#12289B"/>
<path d="M18.6995 10.0432C19.9689 10.0435 21.0804 9.19118 21.4091 7.9647C21.7376 6.73853 21.2012 5.44451 20.1017 4.81001V4.38537C20.1017 3.70697 19.552 3.15721 18.8736 3.15721C18.1952 3.15721 17.6454 3.70697 17.6454 4.38537V4.63914C16.4019 5.14346 15.6897 6.45805 15.9467 7.7751C16.2037 9.09231 17.3576 10.0431 18.6995 10.0431V10.0432ZM18.6995 9.15894C17.8981 9.15802 17.1815 8.6603 16.9001 7.91005C17.2547 7.85002 17.601 7.74824 17.9322 7.60715C18.3427 7.43199 18.7214 7.18942 19.0523 6.88929C19.3654 7.24024 19.8546 7.65858 20.5202 7.86031C20.2602 8.64311 19.5242 9.16799 18.6995 9.15894ZM20.5985 6.94932C20.1598 6.76724 19.8358 6.45161 19.6373 6.21196C19.738 6.06305 19.8285 5.90753 19.9081 5.74649C20.2801 6.04739 20.5264 6.47648 20.5985 6.94932ZM18.5297 4.38537C18.5297 4.19547 18.6835 4.04149 18.8736 4.04149C19.0636 4.04149 19.2175 4.19547 19.2175 4.38537V4.48148C19.0467 4.44924 18.8733 4.43297 18.6995 4.43281C18.6425 4.43281 18.5859 4.43512 18.5297 4.43834V4.38537ZM18.6995 5.31709C18.8381 5.31724 18.9764 5.33229 19.1117 5.36222C18.5103 6.56475 17.4059 6.92614 16.7894 7.03452C16.8945 6.05859 17.7177 5.31847 18.6995 5.31709Z" fill="#12289B"/>
<path d="M5.26802 10.0432C6.81137 10.0432 8.04368 8.81459 8.07315 7.24637C8.07315 7.24361 8.07315 7.24069 8.07315 7.23793C8.07315 5.68875 6.81735 4.43295 5.26802 4.43295C3.71884 4.43295 2.46289 5.68875 2.46289 7.23793C2.46289 8.78726 3.71884 10.0432 5.26802 10.0432ZM5.26802 5.31723C6.32685 5.31861 7.18534 6.17526 7.18887 7.23394C7.16646 8.3138 6.32332 9.15909 5.26802 9.15909C4.20719 9.15909 3.34717 8.29907 3.34717 7.23824C3.34717 6.17741 4.20719 5.31723 5.26802 5.31723Z" fill="#12289B"/>
<path d="M21.0859 13.8668H20.2507C20.0066 13.8668 19.8086 14.0648 19.8086 14.3089C19.8086 14.553 20.0066 14.7511 20.2507 14.7511H21.0859C21.33 14.7511 21.528 14.553 21.528 14.3089C21.528 14.0648 21.33 13.8668 21.0859 13.8668Z" fill="#12289B"/>
<path d="M13.7156 15.8318C13.4715 15.8318 13.2734 16.0299 13.2734 16.274C13.2734 16.5181 13.4715 16.7162 13.7156 16.7162H14.5507C14.7949 16.7162 14.9929 16.5181 14.9929 16.274C14.9929 16.0299 14.7949 15.8318 14.5507 15.8318H13.7156Z" fill="#12289B"/>
<path d="M7.82175 14.1616C7.82175 13.9175 7.62371 13.7194 7.37961 13.7194H6.74097C6.49687 13.7194 6.29883 13.9175 6.29883 14.1616C6.29883 14.4057 6.49687 14.6037 6.74097 14.6037H7.37961C7.62371 14.6037 7.82175 14.4057 7.82175 14.1616Z" fill="#12289B"/>
</svg>
